# xmcd CD database file
#
# Track frame offsets:
#	150
#	16167
#	29442
#	46747
#	75387
#	102810
#	119460
#	138662
#	144532
#	162600
#	171330
#	184995
#
# Disc length: 2981 seconds
#
# Revision: 0
# Processed by: cddbd v1.5.1PL0 Copyright (c) Steve Scherf et al.
# Submitted via: CDex 1.51
#
DISCID=a00ba30c
DTITLE=ANIMETAL - ANIMETAL Complete First Live - [CD2]
DYEAR=1997
DGENRE=Heavy Metal
TTITLE0=ゲッターロボ！
TTITLE1=キューティーハニー By アニメタル・レディー
TTITLE2=魔法使いサリー By アニメタル・レディー
TTITLE3=マジンガーＺ
TTITLE4=デビルマンのうた
TTITLE5=アンコール前拍手１
TTITLE6=銀河鉄道999
TTITLE7=MC4
TTITLE8=跳べ！ガンダム
TTITLE9=アンコール前拍手２
TTITLE10=MC5
TTITLE11=This Is ANIMETAL?Type2
EXTD=YEAR: 1997
EXTT0=
EXTT1=
EXTT2=
EXTT3=
EXTT4=
EXTT5=
EXTT6=
EXTT7=
EXTT8=
EXTT9=
EXTT10=
EXTT11=
PLAYORDER=
